<svg width="8" height="12" viewBox="0 0 8 12" fill="none" xmlns="http://www.w3.org/2000/svg">
<path d="M3.97701 11.1392C3.39367 11.1392 2.86834 11.0232 2.40101 10.7912C1.93368 10.5592 1.55916 10.241 1.27743 9.83665C0.995709 9.43229 0.84159 8.97159 0.815075 8.45455H2.00826C2.05466 8.91525 2.26346 9.2964 2.63468 9.59801C3.0092 9.89631 3.45665 10.0455 3.97701 10.0455C4.39462 10.0455 4.76583 9.94768 5.09064 9.75213C5.41877 9.55658 5.67563 9.28812 5.86124 8.94673C6.05016 8.60204 6.14462 8.21259 6.14462 7.77841C6.14462 7.33428 6.04685 6.93821 5.8513 6.5902C5.65906 6.23887 5.39391 5.96212 5.05584 5.75994C4.71777 5.55776 4.33165 5.45502 3.89746 5.4517C3.58591 5.44839 3.26607 5.49645 2.93794 5.59588C2.60982 5.692 2.3397 5.81629 2.12757 5.96875L0.974166 5.82955L1.59064 0.818182H6.88042V1.91193H2.62473L2.26678 4.91477H2.32644C2.53525 4.74905 2.79708 4.61151 3.11195 4.50213C3.42682 4.39276 3.75494 4.33807 4.09632 4.33807C4.71943 4.33807 5.27459 4.48722 5.76181 4.78551C6.25234 5.08049 6.63681 5.48485 6.91522 5.99858C7.19694 6.51231 7.3378 7.09896 7.3378 7.75852C7.3378 8.40814 7.19197 8.98816 6.9003 9.49858C6.61195 10.0057 6.21422 10.4067 5.70712 10.7017C5.20002 10.9934 4.62331 11.1392 3.97701 11.1392Z" fill="white"/>
</svg>
