<svg width="28" height="38" viewBox="0 0 28 38" fill="none" xmlns="http://www.w3.org/2000/svg">
<path d="M4.78297 9.11473C4.78297 4.16605 8.80614 0.142883 13.7548 0.142883C18.7035 0.142883 22.7267 4.16605 22.7267 9.11473C22.7078 13.969 18.9113 17.8977 14.0759 18.0677H13.9437C13.8304 18.0488 13.6793 18.0488 13.5282 18.0677C8.57948 17.8977 4.78297 13.969 4.78297 9.11473Z" fill="white"/>
<path d="M4.17823 23.0898C9.48579 19.5766 18.0798 19.5766 23.3496 23.0898C25.7295 24.6764 27.0328 26.8296 27.0516 29.1529C27.0516 31.495 25.7295 33.6482 23.3496 35.2537C20.7052 37.0292 17.2298 37.9169 13.7544 37.9169C10.279 37.9169 6.80368 37.0292 4.15934 35.2537C1.77944 33.6671 0.457275 31.5139 0.457275 29.1906C0.457275 26.8674 1.77944 24.6953 4.17823 23.0898Z" fill="white"/>
</svg>
